<svg xmlns="http://www.w3.org/2000/svg" viewBox="0 0 154 42" fill="none"><path d="m120.82 35.233 4.78-.638 2.94-13.406 6.364 12.163 4.781-.638 4.25-20.87-5.737.767-2.33 12.098-5.907-10.998-4.781.639-2.808 12.161-5.466-11.056-5.7.76 9.614 19.018ZM45.413 33.413l5.56.231.496-11.745c.048-1.154.396-2.061 1.043-2.723.673-.685 1.553-1.005 2.64-.96 1.088.046 1.925.437 2.513 1.174.614.714.896 1.648.848 2.802l-.495 11.745 5.56.231.496-11.745c.048-1.154.396-2.061 1.043-2.723.672-.685 1.552-1.005 2.64-.96 1.087.046 1.925.437 2.513 1.175.614.713.896 1.647.848 2.8l-.496 11.746 5.561.231.545-12.923c.064-1.522-.201-2.86-.796-4.016a6.832 6.832 0 0 0-2.556-2.8c-1.085-.684-2.357-1.056-3.815-1.117-1.31-.054-2.52.154-3.629.624-1.084.447-2.006 1.183-2.767 2.208-.528-.98-1.337-1.764-2.426-2.35-1.064-.61-2.263-.943-3.598-.998-1.285-.054-2.432.145-3.442.594a4.841 4.841 0 0 0-2.353 2.079l.104-2.467-5.19-.216-.847 20.103ZM145.301 24.108l4.737.901L154 6.44l-5.466-1.04-3.233 18.708Zm-1.971 8.254 5.466 1.04 1.048-5.428-5.467-1.04-1.047 5.428Z" fill="#fff"></path><path d="M82.825 34.284c1.99.592 3.86.686 5.609.283 1.755-.427 3.142-1.258 4.16-2.494l-3.659-3.28a4.252 4.252 0 0 1-2.068 1.077c-.777.179-1.64.128-2.587-.154-1.303-.388-2.26-1.07-2.87-2.046-.609-.976-.804-2.085-.584-3.328l13.579 4.038c.172-.231.324-.52.454-.865.161-.363.298-.732.412-1.109.539-1.789.642-3.502.31-5.14-.302-1.653-1.036-3.115-2.203-4.385-1.166-1.27-2.78-2.212-4.842-2.825-1.848-.55-3.639-.607-5.37-.173a10.287 10.287 0 0 0-4.594 2.519c-1.307 1.252-2.252 2.843-2.834 4.773-.56 1.86-.656 3.677-.288 5.454.368 1.776 1.172 3.349 2.412 4.718 1.247 1.345 2.902 2.324 4.963 2.937Zm4.434-15.992c1.09.324 1.895.91 2.414 1.757.52.847.686 1.794.5 2.84l-8.07-2.398c.594-1.03 1.336-1.732 2.224-2.109.912-.37 1.89-.4 2.932-.09Z" fill="#fff"></path><path d="M104.728 32.546c2.004 0 3.822-.455 5.454-1.364a10.452 10.452 0 0 0 3.896-3.721c.99-1.597 1.485-3.403 1.485-5.417 0-2.04-.495-3.845-1.485-5.418a10.452 10.452 0 0 0-3.896-3.722c-1.632-.909-3.45-1.363-5.454-1.363-2.004 0-3.834.454-5.492 1.364a10.752 10.752 0 0 0-3.933 3.721c-.965 1.573-1.447 3.378-1.447 5.418 0 2.014.482 3.82 1.447 5.416.99 1.573 2.3 2.813 3.933 3.722 1.658.91 3.488 1.364 5.492 1.364Zm0-4.975c-1.509 0-2.746-.516-3.711-1.548-.94-1.032-1.41-2.358-1.41-3.98 0-1.596.47-2.91 1.41-3.943.965-1.056 2.202-1.584 3.711-1.584s2.733.528 3.673 1.584c.94 1.032 1.41 2.347 1.41 3.944 0 1.62-.47 2.947-1.41 3.98-.94 1.031-2.164 1.547-3.673 1.547Z" fill="#fff"></path><path fill-rule="evenodd" clip-rule="evenodd" d="M32.937.467c.14-.092.485-.296.916-.194.251.06.421.203.511.293.098.097.175.204.233.296.116.186.221.414.318.656.196.491.404 1.166.618 1.98.43 1.636.905 3.924 1.353 6.632.896 5.41 1.692 12.55 1.797 19.616.28 3.462-3.358 9.293-16.938 10.48C8.099 41.416 3.263 36.2 2.77 32.766l-.003-.016-.002-.016c-.061-.587-.125-1.211-.19-1.866 3.223.979 5.963.96 8.281.183 2.713-.91 4.723-2.817 6.207-5.1 2.933-4.517 3.939-10.71 4.293-14.498a88.704 88.704 0 0 0 2.963-.365c.636-.091 1.165-.178 1.554-.257.195-.04.343-.074.446-.103l.024-.007.006-.007c.06-.076.14-.189.242-.342.203-.305.46-.723.757-1.226.355-.601.755-1.296 1.177-2.032v-.001c.29-.503.588-1.024.892-1.547.74-1.274 1.5-2.549 2.142-3.494.318-.469.628-.887.907-1.189.136-.148.296-.301.471-.417ZM19.594 11.63c-1.674.157-3.385.284-4.828.346-1.508.066-2.626.055-3.126-.033-.099-.018-.299-.1-.609-.343a8.25 8.25 0 0 1-1.007-.978c-.707-.789-1.464-1.795-2.243-2.83l-.128-.17c-.807-1.073-1.64-2.172-2.41-2.974-.383-.4-.786-.764-1.194-1.016-.392-.243-.923-.464-1.503-.34-.51.109-.76.522-.867.74a3.63 3.63 0 0 0-.272.878c-.126.634-.197 1.489-.232 2.48-.07 1.997.003 4.702.157 7.666.234 4.51.657 9.667 1.061 13.94 3.273 1.125 5.857 1.108 7.908.421 2.237-.75 3.964-2.341 5.303-4.401 2.613-4.024 3.614-9.638 3.99-13.386Zm11.459 1.163c-.756-1.483.89-5.112 1.807-6.74 1.328-2.027 1.073 3.068.78 5.868.13 1.473-1.832 2.355-2.587.872ZM4.689 8.514c1.19 1.445 3.448 4.733 2.965 6.324-.483 1.59-2.57 1.063-2.7-.41-.782-2.706-1.928-7.679-.265-5.914Zm15.678 17.984c.287-.03.57.081.756.3l1.983 2.322c.085.037.187.079.292.114.087.029.164.05.225.06.042.009.065.01.07.01h.002a.866.866 0 0 1 .934.785.864.864 0 0 1-.789.934c-.37.032-.751-.074-.994-.155a5.061 5.061 0 0 1-.683-.285.866.866 0 0 1-.262-.208l-1.274-1.493a72.798 72.798 0 0 1-.926 1.689 1.607 1.607 0 0 1-.566.546c-.19.114-.392.195-.573.254-.36.117-.732.177-.977.199a.866.866 0 0 1-.94-.784.864.864 0 0 1 .788-.934c.142-.013.38-.051.588-.12.102-.032.173-.065.215-.09.255-.442 1.06-1.944 1.458-2.69a.868.868 0 0 1 .673-.454Zm-2.107 3.128-.003.002.003-.002Zm11.052-4.322c1.353-.119 2.421-.535 2.302-1.88a2.455 2.455 0 0 0-2.665-2.219 2.448 2.448 0 0 0-2.235 2.648c.119 1.344 1.244 1.569 2.598 1.45Zm-16.268-.257c.119 1.344-.95 1.76-2.303 1.879-1.353.118-2.479-.107-2.598-1.451a2.448 2.448 0 0 1 2.235-2.648 2.455 2.455 0 0 1 2.666 2.22Z" fill="#fff"></path></svg>